<?xml version="1.0" encoding="UTF-8"?>
<svg id="Layer_1" xmlns="http://www.w3.org/2000/svg" version="1.1" viewBox="0 0 500 48.2">
  <!-- Generator: Adobe Illustrator 29.8.1, SVG Export Plug-In . SVG Version: 2.1.1 Build 2)  -->
  <path d="M0,.1h10.9v28.3c0,2.1.1,3.8.4,5.2.2,1.4.7,2.5,1.4,3.3.7.8,1.5,1.4,2.7,1.7,1.1.3,2.6.5,4.4.5s3.2-.2,4.3-.5c1.1-.3,2-.9,2.7-1.7.7-.8,1.1-1.9,1.4-3.3.3-1.4.4-3.1.4-5.2V.1h10.8v28.3c0,3.4-.3,6.4-.9,8.9-.6,2.5-1.7,4.5-3.2,6.2-1.5,1.6-3.5,2.8-6,3.6-2.5.8-5.7,1.2-9.5,1.2s-7-.4-9.5-1.2-4.5-2-6-3.6c-1.5-1.6-2.6-3.7-3.2-6.2-.6-2.5-.9-5.4-.9-8.9V.1Z"/>
  <path d="M57.2,31.2v15.8h-10.6V.1h18.8c6.4,0,11,1.1,13.8,3.4,2.8,2.3,4.2,5.9,4.2,10.8v2.6c0,4.8-1.4,8.4-4.3,10.7-2.8,2.4-7.4,3.5-13.8,3.5h-8ZM72.4,15.3c0-1.3-.1-2.3-.4-3.1-.3-.8-.7-1.5-1.3-1.9-.6-.5-1.4-.8-2.3-1-1-.2-2.2-.3-3.6-.3h-7.6v13.4h7.6c1.4,0,2.7,0,3.6-.3,1-.2,1.7-.5,2.3-1,.6-.5,1-1.1,1.3-1.9.3-.8.4-1.9.4-3.1v-.8Z"/>
  <path d="M89.1.1h19.4c4,0,7.4.4,10.1,1.3,2.7.9,4.8,2.1,6.4,3.9,1.6,1.7,2.7,3.9,3.3,6.4.6,2.6,1,5.6,1,9.1v5.6c0,3.4-.3,6.4-1,8.9-.6,2.6-1.7,4.7-3.3,6.5-1.6,1.8-3.7,3.1-6.3,4-2.6.9-6,1.3-9.9,1.3h-19.6V.1ZM99.8,38h7.8c1.9,0,3.6-.2,4.9-.5,1.3-.3,2.4-.9,3.2-1.8.8-.9,1.4-2,1.7-3.6.4-1.5.5-3.5.5-5.8v-5.5c0-2.4-.2-4.3-.5-5.8-.4-1.5-.9-2.7-1.7-3.5-.8-.9-1.9-1.4-3.2-1.8-1.3-.3-2.9-.5-4.9-.5h-7.8v28.7Z"/>
  <path d="M162.5,35.7h-16.9l-3.7,11.3h-10.9L147.9.1h12.8l17,46.9h-11.4l-3.8-11.3ZM148.3,27.2h11.6l-5.9-17.5-5.7,17.5Z"/>
  <path d="M214.4.1l-1.8,9.2h-14.1v37.8h-10.9V9.3h-15.7l1.7-9.2h40.7Z"/>
  <path d="M249.5,27.7h-19.6v10.1h23.8l-1.8,9.2h-32.9V.1h34.3l-1.7,9.2h-21.7v9.3h21.3l-1.7,9.2Z"/>
  <path d="M285.4,47h-10.9V.1h33.1l-1.7,9.2h-20.6v10.3h19.6l-1.7,9.2h-17.9v18.3Z"/>
  <path d="M323.3.1v37.8h22.1l-1.8,9.2h-31.2V.1h10.9Z"/>
  <path d="M360.9.1v46.9h-10.9V.1h10.9Z"/>
  <path d="M388.8,47c-4.1,0-7.5-.4-10.2-1.1-2.7-.7-4.9-1.9-6.6-3.6-1.6-1.6-2.8-3.7-3.5-6.3-.7-2.5-1-5.6-1-9.3v-6.5c0-3.5.4-6.5,1.1-9,.7-2.5,2-4.7,3.7-6.3,1.7-1.7,4-2.9,6.9-3.7,2.9-.8,6.5-1.2,10.8-1.2h7.5c1.2,0,2.3,0,3.5,0,1.2,0,2.5,0,3.9,0l-1.7,9.1c-2.1,0-3.8,0-5.3,0-1.5,0-2.7,0-3.8,0h-4.7c-2.2,0-3.9.2-5.3.5-1.4.3-2.4.9-3.2,1.7-.8.8-1.3,2-1.6,3.4-.3,1.5-.4,3.4-.4,5.8v6.2c0,2.5.2,4.4.5,5.9.3,1.5.8,2.6,1.6,3.5.7.8,1.8,1.4,3,1.6,1.3.3,2.9.4,4.8.4h6.7v-8.6h-7.4l1.8-9h16.5v19.6c0,1.1-.1,2.1-.3,3-.2.9-.6,1.6-1.2,2.2-.6.6-1.4,1-2.4,1.4-1,.3-2.3.5-3.9.5h-9.7Z"/>
  <path d="M452.9.1v46.9h-10.9v-19.1h-18.4v19.1h-10.9V.1h10.9v18.3h18.4V.1h10.9Z"/>
  <path d="M500,.1l-1.8,9.2h-14.1v37.8h-10.9V9.3h-15.7l1.7-9.2h40.7Z"/>
</svg>