{
	"asset":{
		"generator":"Khronos glTF Blender I/O v4.5.48",
		"version":"2.0"
	},
	"scene":0,
	"scenes":[
		{
			"name":"Scene",
			"nodes":[
				0
			]
		}
	],
	"nodes":[
		{
			"mesh":0,
			"name":"ucak",
			"rotation":[
				0.7500482797622681,
				0,
				0,
				0.6613832116127014
			],
			"translation":[
				0,
				0.1569274663925171,
				-1.6993680000305176
			]
		}
	],
	"materials":[
		{
			"doubleSided":true,
			"name":"teker-demir"
		},
		{
			"doubleSided":true,
			"name":"teker"
		},
		{
			"doubleSided":true,
			"name":"cam"
		},
		{
			"doubleSided":true,
			"name":"ucak"
		},
		{
			"doubleSided":true,
			"name":"motor_ic",
			"pbrMetallicRoughness":{
				"baseColorFactor":[
					0,
					0,
					0,
					1
				],
				"metallicFactor":0,
				"roughnessFactor":0.5
			}
		},
		{
			"doubleSided":true,
			"name":"motor-kenar"
		},
		{
			"doubleSided":true,
			"name":"motor"
		},
		{
			"doubleSided":true,
			"name":"pervane"
		}
	],
	"meshes":[
		{
			"name":"Cylinder.004_Cylinder.009",
			"primitives":[
				{
					"attributes":{
						"POSITION":0,
						"NORMAL":1,
						"TEXCOORD_0":2,
						"COLOR_0":3,
						"COLOR_1":4
					},
					"indices":5,
					"material":0
				},
				{
					"attributes":{
						"POSITION":6,
						"NORMAL":7,
						"TEXCOORD_0":8,
						"COLOR_0":9,
						"COLOR_1":10
					},
					"indices":11,
					"material":1
				},
				{
					"attributes":{
						"POSITION":12,
						"NORMAL":13,
						"TEXCOORD_0":14,
						"COLOR_0":15,
						"COLOR_1":16
					},
					"indices":17,
					"material":2
				},
				{
					"attributes":{
						"POSITION":18,
						"NORMAL":19,
						"TEXCOORD_0":20,
						"COLOR_0":21,
						"COLOR_1":22
					},
					"indices":23,
					"material":3
				},
				{
					"attributes":{
						"POSITION":24,
						"NORMAL":25,
						"TEXCOORD_0":26,
						"COLOR_0":27,
						"COLOR_1":28
					},
					"indices":29,
					"material":4
				},
				{
					"attributes":{
						"POSITION":30,
						"NORMAL":31,
						"TEXCOORD_0":32,
						"COLOR_0":33,
						"COLOR_1":34
					},
					"indices":35,
					"material":5
				},
				{
					"attributes":{
						"POSITION":36,
						"NORMAL":37,
						"TEXCOORD_0":38,
						"COLOR_0":39,
						"COLOR_1":40
					},
					"indices":41,
					"material":6
				},
				{
					"attributes":{
						"POSITION":42,
						"NORMAL":43,
						"TEXCOORD_0":44,
						"COLOR_0":45,
						"COLOR_1":46
					},
					"indices":47,
					"material":7
				}
			]
		}
	],
	"accessors":[
		{
			"bufferView":0,
			"componentType":5126,
			"count":832,
			"max":[
				0.3517436981201172,
				1.5910370349884033,
				0.6503731608390808
			],
			"min":[
				-0.3471812307834625,
				-2.433814525604248,
				-0.29338160157203674
			],
			"type":"VEC3"
		},
		{
			"bufferView":1,
			"componentType":5126,
			"count":832,
			"type":"VEC3"
		},
		{
			"bufferView":2,
			"componentType":5126,
			"count":832,
			"type":"VEC2"
		},
		{
			"bufferView":3,
			"componentType":5121,
			"count":832,
			"normalized":true,
			"type":"VEC4"
		},
		{
			"bufferView":4,
			"componentType":5123,
			"count":832,
			"normalized":true,
			"type":"VEC4"
		},
		{
			"bufferView":5,
			"componentType":5123,
			"count":3381,
			"type":"SCALAR"
		},
		{
			"bufferView":6,
			"componentType":5126,
			"count":6524,
			"max":[
				0.36436089873313904,
				1.6460521221160889,
				0.7198384404182434
			],
			"min":[
				-0.3598148822784424,
				-2.4891655445098877,
				-0.0027126148343086243
			],
			"type":"VEC3"
		},
		{
			"bufferView":7,
			"componentType":5126,
			"count":6524,
			"type":"VEC3"
		},
		{
			"bufferView":8,
			"componentType":5126,
			"count":6524,
			"type":"VEC2"
		},
		{
			"bufferView":9,
			"componentType":5121,
			"count":6524,
			"normalized":true,
			"type":"VEC4"
		},
		{
			"bufferView":10,
			"componentType":5123,
			"count":6524,
			"normalized":true,
			"type":"VEC4"
		},
		{
			"bufferView":11,
			"componentType":5123,
			"count":37764,
			"type":"SCALAR"
		},
		{
			"bufferView":12,
			"componentType":5126,
			"count":198,
			"max":[
				1.703418493270874,
				2.1695239543914795,
				-0.10043025761842728
			],
			"min":[
				-1.7034183740615845,
				-0.6442905068397522,
				-1.1108791828155518
			],
			"type":"VEC3"
		},
		{
			"bufferView":13,
			"componentType":5126,
			"count":198,
			"type":"VEC3"
		},
		{
			"bufferView":14,
			"componentType":5126,
			"count":198,
			"type":"VEC2"
		},
		{
			"bufferView":15,
			"componentType":5121,
			"count":198,
			"normalized":true,
			"type":"VEC4"
		},
		{
			"bufferView":16,
			"componentType":5123,
			"count":198,
			"normalized":true,
			"type":"VEC4"
		},
		{
			"bufferView":17,
			"componentType":5123,
			"count":873,
			"type":"SCALAR"
		},
		{
			"bufferView":18,
			"componentType":5126,
			"count":5825,
			"max":[
				4.646361351013184,
				2.4953365325927734,
				0.46154990792274475
			],
			"min":[
				-4.647150039672852,
				-7.61759090423584,
				-2.1466174125671387
			],
			"type":"VEC3"
		},
		{
			"bufferView":19,
			"componentType":5126,
			"count":5825,
			"type":"VEC3"
		},
		{
			"bufferView":20,
			"componentType":5126,
			"count":5825,
			"type":"VEC2"
		},
		{
			"bufferView":21,
			"componentType":5121,
			"count":5825,
			"normalized":true,
			"type":"VEC4"
		},
		{
			"bufferView":22,
			"componentType":5123,
			"count":5825,
			"normalized":true,
			"type":"VEC4"
		},
		{
			"bufferView":23,
			"componentType":5123,
			"count":33795,
			"type":"SCALAR"
		},
		{
			"bufferView":24,
			"componentType":5126,
			"count":258,
			"max":[
				1.8946750164031982,
				-0.2544891834259033,
				0.20488569140434265
			],
			"min":[
				-1.8946750164031982,
				-0.30590367317199707,
				-0.20272523164749146
			],
			"type":"VEC3"
		},
		{
			"bufferView":25,
			"componentType":5126,
			"count":258,
			"type":"VEC3"
		},
		{
			"bufferView":26,
			"componentType":5126,
			"count":258,
			"type":"VEC2"
		},
		{
			"bufferView":27,
			"componentType":5121,
			"count":258,
			"normalized":true,
			"type":"VEC4"
		},
		{
			"bufferView":28,
			"componentType":5123,
			"count":258,
			"normalized":true,
			"type":"VEC4"
		},
		{
			"bufferView":29,
			"componentType":5123,
			"count":768,
			"type":"SCALAR"
		},
		{
			"bufferView":30,
			"componentType":5126,
			"count":676,
			"max":[
				1.9507899284362793,
				-0.10204485058784485,
				0.23243080079555511
			],
			"min":[
				-1.9489489793777466,
				-0.1820787787437439,
				-0.28094202280044556
			],
			"type":"VEC3"
		},
		{
			"bufferView":31,
			"componentType":5126,
			"count":676,
			"type":"VEC3"
		},
		{
			"bufferView":32,
			"componentType":5126,
			"count":676,
			"type":"VEC2"
		},
		{
			"bufferView":33,
			"componentType":5121,
			"count":676,
			"normalized":true,
			"type":"VEC4"
		},
		{
			"bufferView":34,
			"componentType":5123,
			"count":676,
			"normalized":true,
			"type":"VEC4"
		},
		{
			"bufferView":35,
			"componentType":5123,
			"count":3468,
			"type":"SCALAR"
		},
		{
			"bufferView":36,
			"componentType":5126,
			"count":4018,
			"max":[
				1.9877641201019287,
				-0.12141247093677521,
				0.3497776687145233
			],
			"min":[
				-1.9877641201019287,
				-2.3307363986968994,
				-0.2819298803806305
			],
			"type":"VEC3"
		},
		{
			"bufferView":37,
			"componentType":5126,
			"count":4018,
			"type":"VEC3"
		},
		{
			"bufferView":38,
			"componentType":5126,
			"count":4018,
			"type":"VEC2"
		},
		{
			"bufferView":39,
			"componentType":5121,
			"count":4018,
			"normalized":true,
			"type":"VEC4"
		},
		{
			"bufferView":40,
			"componentType":5123,
			"count":4018,
			"normalized":true,
			"type":"VEC4"
		},
		{
			"bufferView":41,
			"componentType":5123,
			"count":22428,
			"type":"SCALAR"
		},
		{
			"bufferView":42,
			"componentType":5126,
			"count":123,
			"max":[
				1.8524374961853027,
				-0.12684597074985504,
				0.16032294929027557
			],
			"min":[
				-1.8524380922317505,
				-0.2146434634923935,
				-0.19946280121803284
			],
			"type":"VEC3"
		},
		{
			"bufferView":43,
			"componentType":5126,
			"count":123,
			"type":"VEC3"
		},
		{
			"bufferView":44,
			"componentType":5126,
			"count":123,
			"type":"VEC2"
		},
		{
			"bufferView":45,
			"componentType":5121,
			"count":123,
			"normalized":true,
			"type":"VEC4"
		},
		{
			"bufferView":46,
			"componentType":5123,
			"count":123,
			"normalized":true,
			"type":"VEC4"
		},
		{
			"bufferView":47,
			"componentType":5123,
			"count":714,
			"type":"SCALAR"
		}
	],
	"bufferViews":[
		{
			"buffer":0,
			"byteLength":9984,
			"byteOffset":0,
			"target":34962
		},
		{
			"buffer":0,
			"byteLength":9984,
			"byteOffset":9984,
			"target":34962
		},
		{
			"buffer":0,
			"byteLength":6656,
			"byteOffset":19968,
			"target":34962
		},
		{
			"buffer":0,
			"byteLength":3328,
			"byteOffset":26624,
			"target":34962
		},
		{
			"buffer":0,
			"byteLength":6656,
			"byteOffset":29952,
			"target":34962
		},
		{
			"buffer":0,
			"byteLength":6762,
			"byteOffset":36608,
			"target":34963
		},
		{
			"buffer":0,
			"byteLength":78288,
			"byteOffset":43372,
			"target":34962
		},
		{
			"buffer":0,
			"byteLength":78288,
			"byteOffset":121660,
			"target":34962
		},
		{
			"buffer":0,
			"byteLength":52192,
			"byteOffset":199948,
			"target":34962
		},
		{
			"buffer":0,
			"byteLength":26096,
			"byteOffset":252140,
			"target":34962
		},
		{
			"buffer":0,
			"byteLength":52192,
			"byteOffset":278236,
			"target":34962
		},
		{
			"buffer":0,
			"byteLength":75528,
			"byteOffset":330428,
			"target":34963
		},
		{
			"buffer":0,
			"byteLength":2376,
			"byteOffset":405956,
			"target":34962
		},
		{
			"buffer":0,
			"byteLength":2376,
			"byteOffset":408332,
			"target":34962
		},
		{
			"buffer":0,
			"byteLength":1584,
			"byteOffset":410708,
			"target":34962
		},
		{
			"buffer":0,
			"byteLength":792,
			"byteOffset":412292,
			"target":34962
		},
		{
			"buffer":0,
			"byteLength":1584,
			"byteOffset":413084,
			"target":34962
		},
		{
			"buffer":0,
			"byteLength":1746,
			"byteOffset":414668,
			"target":34963
		},
		{
			"buffer":0,
			"byteLength":69900,
			"byteOffset":416416,
			"target":34962
		},
		{
			"buffer":0,
			"byteLength":69900,
			"byteOffset":486316,
			"target":34962
		},
		{
			"buffer":0,
			"byteLength":46600,
			"byteOffset":556216,
			"target":34962
		},
		{
			"buffer":0,
			"byteLength":23300,
			"byteOffset":602816,
			"target":34962
		},
		{
			"buffer":0,
			"byteLength":46600,
			"byteOffset":626116,
			"target":34962
		},
		{
			"buffer":0,
			"byteLength":67590,
			"byteOffset":672716,
			"target":34963
		},
		{
			"buffer":0,
			"byteLength":3096,
			"byteOffset":740308,
			"target":34962
		},
		{
			"buffer":0,
			"byteLength":3096,
			"byteOffset":743404,
			"target":34962
		},
		{
			"buffer":0,
			"byteLength":2064,
			"byteOffset":746500,
			"target":34962
		},
		{
			"buffer":0,
			"byteLength":1032,
			"byteOffset":748564,
			"target":34962
		},
		{
			"buffer":0,
			"byteLength":2064,
			"byteOffset":749596,
			"target":34962
		},
		{
			"buffer":0,
			"byteLength":1536,
			"byteOffset":751660,
			"target":34963
		},
		{
			"buffer":0,
			"byteLength":8112,
			"byteOffset":753196,
			"target":34962
		},
		{
			"buffer":0,
			"byteLength":8112,
			"byteOffset":761308,
			"target":34962
		},
		{
			"buffer":0,
			"byteLength":5408,
			"byteOffset":769420,
			"target":34962
		},
		{
			"buffer":0,
			"byteLength":2704,
			"byteOffset":774828,
			"target":34962
		},
		{
			"buffer":0,
			"byteLength":5408,
			"byteOffset":777532,
			"target":34962
		},
		{
			"buffer":0,
			"byteLength":6936,
			"byteOffset":782940,
			"target":34963
		},
		{
			"buffer":0,
			"byteLength":48216,
			"byteOffset":789876,
			"target":34962
		},
		{
			"buffer":0,
			"byteLength":48216,
			"byteOffset":838092,
			"target":34962
		},
		{
			"buffer":0,
			"byteLength":32144,
			"byteOffset":886308,
			"target":34962
		},
		{
			"buffer":0,
			"byteLength":16072,
			"byteOffset":918452,
			"target":34962
		},
		{
			"buffer":0,
			"byteLength":32144,
			"byteOffset":934524,
			"target":34962
		},
		{
			"buffer":0,
			"byteLength":44856,
			"byteOffset":966668,
			"target":34963
		},
		{
			"buffer":0,
			"byteLength":1476,
			"byteOffset":1011524,
			"target":34962
		},
		{
			"buffer":0,
			"byteLength":1476,
			"byteOffset":1013000,
			"target":34962
		},
		{
			"buffer":0,
			"byteLength":984,
			"byteOffset":1014476,
			"target":34962
		},
		{
			"buffer":0,
			"byteLength":492,
			"byteOffset":1015460,
			"target":34962
		},
		{
			"buffer":0,
			"byteLength":984,
			"byteOffset":1015952,
			"target":34962
		},
		{
			"buffer":0,
			"byteLength":1428,
			"byteOffset":1016936,
			"target":34963
		}
	],
	"buffers":[
		{
			"byteLength":1018364,
			"uri":"plane.bin"
		}
	]
}
