{
	"asset":{
		"generator":"Khronos glTF Blender I/O v4.5.48",
		"version":"2.0"
	},
	"extensionsUsed":[
		"KHR_materials_specular"
	],
	"scene":0,
	"scenes":[
		{
			"name":"Scene",
			"nodes":[
				0
			]
		}
	],
	"nodes":[
		{
			"mesh":0,
			"name":"19482_Soldier_parachuting_v1"
		}
	],
	"materials":[
		{
			"doubleSided":true,
			"extensions":{
				"KHR_materials_specular":{
					"specularFactor":0
				}
			},
			"name":"19482_Soldier_parachuting",
			"pbrMetallicRoughness":{
				"baseColorFactor":[
					0.800000011920929,
					0.800000011920929,
					0.800000011920929,
					1
				],
				"metallicFactor":0
			}
		}
	],
	"meshes":[
		{
			"name":"19482_Soldier_parachuting_v1",
			"primitives":[
				{
					"attributes":{
						"POSITION":0,
						"NORMAL":1
					},
					"indices":2,
					"material":0
				}
			]
		}
	],
	"accessors":[
		{
			"bufferView":0,
			"componentType":5126,
			"count":22864,
			"max":[
				4.882999897003174,
				-2.044098377227783,
				22.470199584960938
			],
			"min":[
				-4.882999897003174,
				-4.545398712158203,
				3.9331002235412598
			],
			"type":"VEC3"
		},
		{
			"bufferView":1,
			"componentType":5126,
			"count":22864,
			"type":"VEC3"
		},
		{
			"bufferView":2,
			"componentType":5123,
			"count":130584,
			"type":"SCALAR"
		}
	],
	"bufferViews":[
		{
			"buffer":0,
			"byteLength":274368,
			"byteOffset":0,
			"target":34962
		},
		{
			"buffer":0,
			"byteLength":274368,
			"byteOffset":274368,
			"target":34962
		},
		{
			"buffer":0,
			"byteLength":261168,
			"byteOffset":548736,
			"target":34963
		}
	],
	"buffers":[
		{
			"byteLength":809904,
			"uri":"parachute.bin"
		}
	]
}
